<svg xmlns="http://www.w3.org/2000/svg" width="607" height="397" version="1.0"><g fill="#c2211f"><path d="M575 3.6c0 1.4.4 2.3 1 1.9.6-.3 1-1.5 1-2.6 0-1-.4-1.9-1-1.9-.5 0-1 1.2-1 2.6zM124.8 4.7c-.8 1-2.3 3.2-3.3 5-1.1 1.8-2.5 3.5-3.2 3.7-.7.3-11.3.6-23.5.7-20.3.1-22.3 0-23.5-1.7-.7-1-1.3-2.6-1.3-3.6 0-2.4-1.7-2.3-3.2.2-1 1.5-2.4 2-5.9 2-2.6 0-6.6.7-8.9 1.5-5.7 2-7.3 1.9-16-1-5.3-1.7-8.6-2.2-11.3-1.8-4.1.6-4.8 1.6-6.1 8.8l-.8 4 2.8-2.5 2.8-2.5-2.1 3c-1.1 1.6-2.5 4.6-3.1 6.5-1.5 4.6-4.2 31.4-4.2 41.5-.1 4.4-.5 10-1.1 12.5-.5 2.5-1.5 8.1-2.3 12.5-.7 4.4-1.8 9.3-2.5 10.9-2.3 5.8-5.2 31.6-6.8 61.8-.4 7.6-.2 11.2.6 12.2.7.8.8 1.7.3 2-.6.3-.4 3.4.4 7.8 1 5.3 1.3 14.3 1.1 32.3-.1 16.1.2 27.8 1 33 .7 4.4 1.7 11.8 2.3 16.5.5 4.7 1.7 12.5 2.4 17.5 2.2 13.5 4.3 27.8 5.6 39 .7 5.5 2.1 13.4 3.1 17.7 1.1 4.2 1.9 9.1 1.9 11 0 1.8.7 4.3 1.5 5.5.8 1.2 1.7 4.3 2 7 .8 7.7 1.6 13.6 2.2 16.1.5 2.2.9 2.4 5.7 1.8 2.8-.3 10.1-.8 16.1-1.1 14.2-.7 31.8-4.9 28.6-6.9-1.8-1.1-1.4-4.9.4-4.2.9.3 1.8-.1 2.1-.9.4-.8 1.1-1.5 1.6-1.5.6 0 .7.8.4 1.7-.6 1.6-.6 1.6 1.2 0 1-.9 3.4-1.7 5.2-1.7 2 0 4.2-.8 5.6-2.1 2.1-1.9 2.4-2 7.9-.5 3.2.8 6.1 1.9 6.4 2.4.3.6 3.6 2.4 7.2 4 3.6 1.7 10.3 4.9 15 7.2 4.9 2.5 9.7 4.2 11.4 4.1 3.6-.1 26.4-11.1 26.5-12.7 0-.6 1.4-2.9 3.1-5 3.4-4.2 9.9-17.5 13-26.4 1-3 2.6-11.9 3.4-19.7.8-7.9 2-15.5 2.6-17 .5-1.5.9-6.6.8-11.4-.1-7.7.1-9.1 2.1-11.6 2.4-3.1 2.4-1.5 0-25.8-1.9-19.9-7.6-39.3-14.4-49.3-1.8-2.6-3.5-5.5-3.9-6.4-.3-.9-3-3.2-5.9-5.1-2.9-1.9-6.2-4.4-7.2-5.6-1.1-1.1-2.7-2.1-3.7-2.1s-2-.4-2.4-.9c-.3-.5-1.9-1.2-3.5-1.6-1.7-.4-3-1.2-3-2 0-.7 4.7-3.6 10.5-6.4 16.6-8.1 21.4-14.4 26.4-34.7 2.3-9.2 2.9-14.2 3-22.3 0-8.9.3-10.6 1.8-11.5 2.6-1.4 6.3-5.4 6.3-6.7 0-.8-.6-.7-1.7.3-4.4 3.7-4.5 3.5-3.8-6.8.3-5.4.8-10.8 1.1-12 .5-2.1.2-2.3-3.7-2.6-5.3-.4-6.6-2.6-1.5-2.5 2 .1 3.6.5 3.6 1 0 .4.5.5 1 .2 1.2-.8 1.3-6.5.1-6.5-.5 0-.7-1.5-.5-3.3.8-6.2-6.4-28.6-10-31.3-.9-.6-1.6-1.7-1.6-2.4 0-2.8-12.1-16-17.2-18.6-1.4-.7-5.9-1.9-10-2.5-4-.6-7.7-1.5-8.2-2-.6-.5-5.4-.9-10.8-.9-6.1 0-9.8-.4-9.8-1s1-2.4 2.2-4c2.4-3.2 2.1-5.1-.4-2.3zM27 12.9c0 2-1.3 3.5-2.3 2.5-.7-.8.4-4.4 1.4-4.4.5 0 .9.9.9 1.9zm-4.1 11.9c-.6 1.8-1.5 3.2-2.1 3.2-.5 0-.7-.4-.4-.9.3-.4 1-2.1 1.6-3.6 1.4-3.8 2.3-2.6.9 1.3zm-1.5 14.6c-.6 1.6-2.4 2.3-2.4.8 0-1 2.2-3.3 2.7-2.8.2.2.1 1.1-.3 2zm-.2 5.6c-.2 1.7-.8 3.3-1.3 3.6-1 .6-1.1-1.1-.3-4.4.9-3.3 2.1-2.7 1.6.8zm83.5 27.1c1.5.6 4.1 1.2 5.7 1.3 2.2.1 3.3.9 4.7 3.6 1.6 3 1.9 6.4 2.1 22l.3 18.5 4.3.3c2.6.2 4.2.8 4.2 1.6 0 2.2-1.2 2.6-4.5 1.2-3.1-1.3-3.3-1.3-3.9.7-.3 1.2-.6 4.4-.6 7.1 0 5.3-2.4 15.5-4.6 19.8-.8 1.5-2.9 3.5-4.6 4.4-4 2-13.5 2.8-20.8 1.7l-5.5-.8.3-8.3c.2-7.7.1-8.2-1.8-8.2-1.1 0-2-.7-2-1.5 0-1.6 1.5-2.1 2.3-.8.2.5.2.3.1-.4-.2-.7.1-1.5.7-1.9.6-.4.9-8.7.8-22.8-.2-12.2.1-22.8.6-23.6.5-.7 1.1-4.1 1.4-7.4l.6-6.1 4-.6c6.8-1 13.2-1 16.2.2zm65 24.4c-1.3 2.7-3.3 3.5-2.3.9.3-.9.6-2 .6-2.5s.6-.9 1.4-.9c1.1 0 1.2.5.3 2.5zm-4.7 15.8c0 .7-.7 2.2-1.5 3.3-1.3 1.7-1.4 1.6-.4-1.4 1.1-3.3 1.9-4.1 1.9-1.9zm12.6 10.3c-.3.9-.6 1.8-.6 2 0 .2-.8.4-1.7.3-1.1 0-1.3-.3-.5-.6.6-.2 1.2-1.1 1.2-1.9 0-.8.5-1.4 1.1-1.4.6 0 .8.7.5 1.6zm-2.1 4.4c-.3.5-1.5 1.5-2.6 2.1-1.9 1-2 .9-.9-1 .6-1.2 1.8-2.1 2.6-2.1s1.2.4.9 1zm-53.9 10.1c-.9 1.3-1.3 3.5-1 5.8.5 3.6.5 3.6-1 1.1-.8-1.4-1.2-2.8-1-3.2.3-.5 0-.8-.6-.8s-.2-1 .9-2.1c1.1-1.2 2.4-4.3 2.8-6.8l.8-4.6.3 4.2c.2 2.6-.3 5.1-1.2 6.4zm61.7-5.7c.7-.4.8-.3.4.2-.5.5-1.4.9-2 .9-.6 0-1.7 1-2.3 2.3-1 2-1.2 2.1-2.4.7-1.2-1.4-.9-2 1.6-4 2.2-1.8 3-2 3.2-.9.2.8.9 1.1 1.5.8zm-2.5 6.5c.1.1-.4 1.4-1.3 3.1-1.9 3.7-6 4.4-4.9.7 1.2-4 2.5-4.8 6.2-3.8zM66.5 139c-.3.5-1.1 1-1.6 1-.6 0-.7-.5-.4-1 .3-.6 1.1-1 1.6-1 .6 0 .7.4.4 1zm116.3 4c-1.6 2.4-3.1 1.5-1.8-1.1.6-1.1 1.5-1.7 2-1.4.6.4.5 1.4-.2 2.5zm-1.8 4.4c0 .7-.6 1.9-1.4 2.5-1.1.9-1.2.6-.8-1.4.5-2.6 2.2-3.5 2.2-1.1zm-62 11.3c-1.1 1.7-1.1 1.7-.6 0 .3-1 .7-2.6.7-3.5.1-1.5.2-1.5.6 0 .2 1-.1 2.5-.7 3.5zm.5 3.3c-.3.5-1 1-1.6 1-.5 0-.9-.5-.9-1 0-.6.7-1 1.6-1 .8 0 1.2.4.9 1zm-.5 2.9c0 1.1-5.8 5.4-7.7 5.7-2.2.4-3.4 2.6-2.1 4.1.5.7.8 1.8.5 2.5-.3.7-1.2-.2-2-2.2-.9-1.9-1.7-2.8-1.7-2 0 1.2-.4 1.1-1.5-.4-.8-1.1-1.5-1.5-1.5-.9 0 .9-6.9 1.1-7.1.2-.1-1.2 1.7-4.6 3-5.6 2-1.6 4.8-1.6 5.3-.2.3.8 2.2.7 6.8-.4 8-1.9 8-1.9 8-.8zm-.6 19.2c-4.1 4.2-15.7 10.5-17.4 9.4-2.4-1.5-.8-4.1 2.3-3.6.4 0 .7-.8.7-1.9 0-1.3 1-2.4 2.5-3 1.4-.5 2.5-1.4 2.5-1.9 0-.6.7-.8 1.5-.5.8.4 1.5.1 1.5-.6s.6-.6 1.6.4c2 2 3.4 2 3.4.1 0-1.5 4-3.8 4.9-2.9.3.2-1.3 2.2-3.5 4.5zM27 197c0 .6-.5.8-1 .5-.6-.4-.8-1.1-.5-1.6.6-.9-.3-1.2-3.7-1.2-2 0-2.5-2.7-.5-2.7.7-.1.4-.8-.8-1.8-1.1-.9-2.1-2.8-2.3-4.2-.3-1.9.7-1 4.2 3.7 2.5 3.5 4.6 6.8 4.6 7.3zm94.6 1.7c-.1.2-1.2-.4-2.4-1.3-2.3-1.6-2.9-4.8-1.1-5.9.6-.4.8-1.4.5-2.2-.3-.8-.3-2 .1-2.6.4-.7 1.3 1.7 1.9 5.3.7 3.6 1.1 6.6 1 6.7zM15 189.4c0 1.1-1.9 1.5-2.5.6-.3-.5.1-1 .9-1 .9 0 1.6.2 1.6.4zm99.5 11.6c.3.5.2 1-.4 1-.5 0-1.3-.5-1.6-1-.3-.6-.2-1 .4-1 .5 0 1.3.4 1.6 1zm7.7 0c.6 0 .8.9.3 2.2-.9 3.2-.9 3.8-.1 8.3l.8 4-2.1-2.6c-1.1-1.5-3.5-3.2-5.3-3.9-1.8-.8-3.4-1.4-3.6-1.6-.2-.1.8-1.3 2.2-2.7 1.4-1.4 2.7-2.2 3-1.9.3.3.6-.3.6-1.2 0-1.2.5-1.6 1.6-1.2.9.3 2 .6 2.6.6zm-96.7 6.7c0 4.2-2.1 5.5-3.4 2.1-.6-1.6-.4-2.8.7-4.1 2.2-2.5 2.8-2.1 2.7 2zm68.9 5.9c14.3 2.9 18.5 6.4 20.7 17.4.6 3 1.4 6.8 1.8 8.5.4 1.7.1 5.5-.5 8.5-.7 3-2 11.2-2.9 18.2-1.5 11.7-1.5 12.9 0 15.9 4.8 9.3.7 32.1-6.7 37.3-3.6 2.5-12.9 2.1-19.5-.9-4.8-2.2-5.4-2.9-4.9-4.8.4-1.2.9-4.7 1.2-7.7.4-4.6.2-6.1-1.8-8.9-4.9-7.3-5.5-8.8-6.1-14.6-.4-3.3-1.1-9.1-1.6-12.8-.7-5-.5-9 .5-15 .8-4.5 2.2-14.7 3-22.7.8-8 2-15.7 2.6-17.3 1.3-3.2 2.8-3.4 14.2-1.1zm33.6 14c0 .8-.7 1.4-1.5 1.4-1.7 0-1.8-.2-.9-2.4.7-1.8 2.4-1.2 2.4 1zm-3.5 7.3c-.8 1.7-2 3.1-2.6 3.1-.7 0-.6-.8.3-2.3.8-1.2 1.8-2.8 2.2-3.5 1.6-2.7 1.7-.3.1 2.7zM64.1 341.2c1.7 3.2.3 3.1-2.1-.1-1.6-2.4-1.7-2.9-.5-2.5.8.4 2 1.5 2.6 2.6zm5.6 1.4c-.3.3-1.2.4-1.9.1-.8-.3-.5-.6.6-.6 1.1-.1 1.7.2 1.3.5zm-2.8 8.1c-.5 1.3-.9 3.5-.9 4.9 0 3-1.1 3.1-2.9.1-2-3.1-2.2-6.7-.5-6.7.8 0 1.4-.4 1.4-.9s.9-.7 1.9-.4c1.6.4 1.8.9 1 3zm-3.4 12.8c-2 2.5-2.7 4.6-2.7 8 0 2.5-.2 4.5-.4 4.5-.3 0-1.4-.9-2.6-2-2.1-1.9-2.1-2-.2-4.2 1.7-1.9 1.7-2.1.2-1.5-1.2.4-1.8.1-1.8-.7 0-.9-.7-1.2-2.1-.9-1.6.4-2 .2-1.7-.8.3-.8 1.4-1.3 2.4-1.2 1 .1 1.3 0 .7-.3-1.9-.8-1.6-2.6.5-2.3.9.1 2.4-.1 3.2-.4 1.4-.5 4.5-1.3 6.3-1.6.4 0-.4 1.5-1.8 3.4zm11.2 2.2c.5 1.4-3.6 3.8-4.5 2.7-.4-.4-.2-.9.5-1.1.7-.2.9-1.1.6-2-.4-1.1-.1-1.4 1.2-1.2 1 .2 2 .9 2.2 1.6zm76.9 1.8c-.3.9 0 1.5.9 1.5.8 0 1.5.4 1.5 1 0 1.4-1.3 1.3-2.8-.2-1.5-1.5-1.6-3.8-.1-3.8.6 0 .9.7.5 1.5zM380.1 7.1c-1.3 1-3.2 1.9-4.2 1.9s-1.9.4-1.9 1c0 .5-1.2 1-2.6 1-1.4 0-5.9 1.6-10.1 3.5-4.2 1.9-7.8 3.3-8.1 3.1-.2-.3 3.4-2.3 8-4.5l8.3-4-5.9.6c-3.2.3-12.2 0-20-.7-9.6-.9-16.7-1-22.1-.4l-8 .9-1.2 11.5c-.7 6.3-2 15.6-3 20.7-1.2 6.9-1.4 11.8-.9 20 .7 12.2 2.2 17.7 5.5 19.9 1.7 1.2 1.9 1.9 1.1 2.9-.7.8-1.6 4.6-2.1 8.5-.5 3.9-2.2 11-3.8 15.8-1.6 4.8-3.6 11.6-4.6 15.2-.9 3.6-2.1 7.4-2.6 8.5-1.9 4.3-1.2 11 2.5 21.4 3.7 10.3 3.7 10.6 2.2 14.6-1.3 3.3-1.5 7.2-1.2 20.1.3 8.7.9 18.1 1.4 20.9.5 2.7 1 17.4 1.1 32.5.2 15.1.4 27.7.6 28 .2.3.8 4.9 1.5 10.4 1.4 12.2 1.7 13.8 2.7 14.5.5.3.8 13.1.8 28.4 0 25.5-.1 27.8-1.7 28.3-1 .3-1.8 1.4-1.8 2.5s-.4 2.8-1 3.8c-.5 1-1 3.3-1 5.2-.2 3.7 2.4 13.7 3.8 15.1 2 2 10.7 1.6 23.3-1.3 15.6-3.5 19.9-3.7 22.4-.9 2.1 2.4 3.5 2.6 3.5.5 0-.8-1-2-2.2-2.6-2-1.1-2.1-1.2-.4-2.5 1-.7 1.5-1.8 1.1-2.4-.4-.7.4-.4 1.9.5 3 2 3 2 1.6 4.6-.9 1.6-.7 1.9.8 1.9 1 0 2.7-.6 3.7-1.4 1.7-1.2 2.5-1.2 6 .2 2.2.9 6 3.1 8.3 4.9 4.6 3.5 6.2 3.5 6.2.2 0-1.4-1.6-2.6-5.7-4.5-4.7-2-5.5-2.7-4.2-3.4 1.1-.6 3.8-.6 7.4.1 3.1.6 7 .7 8.6.4 1.8-.4 3.6-.2 4.4.5 1 .9 3.2 1 6.8.6 2.8-.4 7.9-.8 11.3-.9 6.6-.2 11.3-2.5 12.2-5.9.5-2 .6-1.9 1.8.3l1.3 2.4.1-2.9c0-1.6.4-4.5.9-6.5s1.7-7.4 2.6-12.1c1.9-9.3 3.4-12.9 7.2-16.9 2.3-2.5 8.3-14.3 8.3-16.4 0-.6-.9-.2-2 .8-1.9 1.8-2 1.7-2-.3 0-1.1.4-2.3.9-2.6.5-.3 1.2-2.2 1.5-4.1.5-2.5 1.2-3.5 2.6-3.5 1.4 0 2-1.1 2.5-5.3.4-2.8 1.3-6.3 2-7.7 1.6-3.3 2.8-12.3 3-23.5.2-5 1-11.6 2-15 1.9-6.3 1.7-13.3-.6-27.5-1.1-6.5-1.5-7.3-5-9.8-4-2.8-4.8-4.6-2.6-5.6.9-.3.7-.9-.5-1.9-1-.8-1.5-1.7-1.1-2 1-1-1.8-6.7-3.3-6.7-.8 0-1.4-.6-1.4-1.4 0-1.9-7.7-8.7-13.3-11.6-2.6-1.4-4.6-3.1-4.5-3.9.2-.7 4-2.4 8.8-3.8 10.7-3 15.5-5.9 23.5-13.6 5-5 7.4-8.6 12.3-18.2 3.3-6.7 7.2-16.1 8.6-21 1.5-5 4-13.4 5.7-18.7 3.6-11.7 5.3-30.2 2.6-28-1 .9-1.7 1-2.2.2-.3-.5-.2-1 .3-1 .6 0 1.2-.7 1.6-1.5.4-1.3.2-1.4-1.4-.5-1.1.6-2.1.7-2.1.3-.1-.4-.2-1.5-.3-2.3 0-.8-.8-1.4-1.6-1.2-.8.2.1-1.3 2.1-3.2 3.6-3.5 3.7-3.8 3.4-9.9-.6-11.4-5.7-21.8-15.4-31.2-5-4.8-15.8-12.5-17.7-12.5-.6 0-3.6-1.4-6.8-3.1-8-4.4-17-6.4-21.7-4.8-2.6.8-4.2.8-5.6 0-3.9-2-19.8-4.1-30.3-4-8.7.1-10.9.4-12.9 2zm56.3 7.5c.9 2.2-.3 3.2-1.4 1.4-1.2-1.9-1.2-3-.1-3 .5 0 1.2.7 1.5 1.6zm-1.9 4.8c-.2 1.2-.4 2.4-.4 2.8-.1.5-.5.8-.9.8-.5 0-.9-2.1-1-4.8-.1-4.3 0-4.5 1.3-2.8.8 1 1.3 2.8 1 4zm-45.8 45.7c.5 1.7.7 1.7 2.9.2 1.9-1.2 4-1.4 9-1 7.2.5 8.1 1.2 11.6 8.6 1.8 4 2 5.6 1.4 14.3-.4 5.4-1.3 11.6-2.1 13.9-.8 2.2-1.7 6.2-2.1 8.9-.4 3.3-1.4 5.5-3 6.9-3.1 2.7-4.1 8.4-2 11.6 1.6 2.4 1.5 2.8-1.7 9.8-4.1 8.7-5.8 10.3-12.8 12.1-7.4 2-10.4.3-7.9-4.3 1.3-2.5 3-10.5 2-9.5-.5.5-2.4 3.8-4.4 7.4-4.1 7.7-6.9 8.7-7.4 2.8-.2-2 .2-4.7.8-5.8 1.2-2.3 5-36.9 5-46 0-6.3 2.2-15.4 4.3-17.9 2.6-3 3.2-4.7.9-2.7l-2.2 1.9v-6.5c0-3.5.2-6.7.5-7 1.2-1.2 6.8.6 7.2 2.3zm56 11.9c.9 0 1.3.8 1.1 2.2-.2 1.7-1 2.3-3 2.5-2.5.2-2.6 0-1.5-1.8 1-1.6.9-2.2-.3-3-1.2-.9-1.2-1 .3-.5 1 .3 2.5.6 3.4.6zm-102.2 77.6c-.3 1.9-1 3.2-1.5 2.9-.8-.5-.7-1.4.6-7 1-4.1 1.8-.5.9 4.1zm21.5-2.4c0 .6.7.5 1.6-.2 1.3-1.2 1.4-1 .3 1.3-.7 1.5-1.5 2.7-1.8 2.7-.4 0-1.5 2-2.6 4.5s-2.3 4.5-2.7 4.5c-1.9 0-1.8-2.5.1-5.1 1.1-1.5 2.1-3.4 2.1-4.2 0-.7.5-1.8 1.2-2.5.9-.9.8-1.2-.6-1.2-.9 0-1.5-.4-1.1-1 .7-1.1 3.5-.2 3.5 1.2zm33.2 7.8c-1.2.5-2.7 2-3.2 3.2-1 2.6-1.3 1.4-.4-1.7.3-1.4 1.4-2.1 3.2-2.2 2.6-.2 2.6-.1.4.7zm-44.5 2.9c1.1-1 1.4-1 .9-.2-.4.8-.1 1.3.8 1.3s1.6.4 1.6.9-.9.7-2 .4c-1.1-.3-2.6 0-3.4.6-1.1.9-1.5.6-1.8-1.4-.4-2-.3-2.3.8-1.4 1.1.9 1.8.8 3.1-.2zM393 177c1 1.9 1 2-.9.8-2.2-1.3-2.8-2.8-1.1-2.8.5 0 1.4.9 2 2zm5.8 7.8c1.3-.2 1.8.5 2 2.9.3 2.7 0 3.2-1.3 2.6-2.4-.9-6.5-4.8-6.5-6.2 0-.9.5-.9 2-.1 1.1.6 2.8 1 3.8.8zm47.2 18.8c0 .7-.7 1.5-1.6 1.8-2.4.9-3.1.7-1.4-.4 1.3-.9 1.3-1.2-.2-2.4-1-.7-1.5-1.6-1.2-1.9.9-.8 4.4 1.5 4.4 2.9zm-48.3 2.1c-1.1 8.7-2 21.8-1.4 21.3.2-.3 1-4.5 1.6-9.4.7-5.2 1.8-9.5 2.7-10.4.9-.8 2.2-2.6 3.1-3.9 2.3-3.5 2.7-2.1.5 1.8-3.8 6.9-4.9 13.7-5.1 32.7-.1 3.2-.5 5.1-1.1 4.7-.6-.4-.8.5-.5 2.2 1.8 11.5 2.5 20 2 23.7-.5 2.9-.3 4.6.5 5.1.9.5 1 .2.6-1.3-.4-1.1-.2-2.3.4-2.7.5-.3 1 .2 1.1 1.2.3 9.9 1.1 13.5 3.1 15.3.9.8 1.9 2.6 2.3 4l.6 2.5-1.5-2.5c-1.8-2.9-2-2.3-.6 1.5.5 1.4 1.4 2.4 1.9 2.1.5-.4 1.5 1 2.1 3 .8 2.4.9 3.9.2 4.3-.5.3-3.7 6-7 12.6-4.1 8.3-6.8 12.5-8.6 13.4-1.4.8-2.8 1.2-3.1.9-.6-.6 3.5-8.1 4.7-8.6.4-.2.8-1.2.8-2.1 0-1 1-2.9 2.3-4.3 9.8-11 8.9-12-1.6-1.8-3.9 3.8-7.7 7-8.4 7-1.7 0-3.5-3.7-2.9-5.8.3-.9.8-5.8 1.1-10.7.3-5 .9-10.4 1.2-12 .8-3.8.6-36.7-.3-41.9-.3-2.1-1.7-6.9-3-10.6-2.6-7.5-6.6-28.3-5.9-30.3.5-1.1 12.9-5.3 16.9-5.6 1.6-.1 1.8.4 1.3 4.6zm5.4 42.6c-.1 1.2-1.5.9-1.9-.4-.3-.6.1-1 .8-.8.6.3 1.1.8 1.1 1.2zm5.6 5.3c.3.8 0 2.5-.6 3.7-1.1 2-1.1 2-.6-.7.4-1.9.1-3.2-.7-3.7-1-.7-1-.9 0-.9.7 0 1.5.7 1.9 1.6zm-3.3 8.8c-.3.8-1.3 1.7-2.2 2.1-1.3.5-1.3.2.3-1.5 2.1-2.4 2.6-2.5 1.9-.6zm4 7c-.3.9-1 1.3-1.6 1-.5-.3-.4-1.2.3-2 1.5-1.8 2.2-1.3 1.3 1zm32.6 48.1c1.3 1.6 1.1 1.7-3.5 2.8-1.1.3-2.8.8-3.7 1.2-1.3.5-1.8.2-1.8-.9 0-1.5 1.1-2 3.8-1.7.7.1 1.5-.5 1.8-1.4.8-1.9 1.8-1.9 3.4 0zm-3.6 6.3c-1.8 1.5-4.6 4.3-6.3 6.2l-3.1 3.5 1.7-3.5c1.9-4.1 7-9 9.2-9 1.1 0 .6.9-1.5 2.8zm-10 1.6c-.3.9-1 1.6-1.5 1.6-.6 0-.5-.9.1-2.1 1.3-2.4 2.4-2 1.4.5zm-38.4 4c0 .8-1.8 3.3-4 5.7-7.6 8.5-12 14.4-12 16.4 0 2.2-3.8 9-4.6 8.2-1.4-1.4 11.3-23.2 16.9-28.9.9-1 1.7-2.3 1.7-2.9 0-.5.5-.7 1-.4.6.3 1 1.2 1 1.9zm32.3 11.1c-.9 1.9-1.8 3.3-2.1 3.1-.4-.5 2.6-6.6 3.3-6.6.3 0-.3 1.6-1.2 3.5zM362 343c0 .5-.5 1-1.1 1-.5 0-.7-.5-.4-1 .3-.6.8-1 1.1-1 .2 0 .4.4.4 1zm58 4.1c0 1.1-.4 1.8-1 1.4-.5-.3-.7-1.2-.3-2 .7-2.1 1.3-1.9 1.3.6zm-60 1.4c0 1.4-.4 2.5-1 2.5-1.1 0-1.4-3.3-.3-4.3 1.1-1.1 1.3-.8 1.3 1.8zm56.3 10.4c-.4 3.9-.8 4.9-1.5 3.7-.5-1-.4-3.1.3-5.6 1.6-5.3 2-4.6 1.2 1.9zm-54.8-.9c-2.7 1.2-4.3 1.2-2.5 0 .8-.5 2.2-.9 3-.9 1 0 .8.3-.5.9zm64.5 5.6c0 .8-.7 1.7-1.6 2.1-.8.3-1.3 1.1-1 1.8.3.8-.1 1.6-.9 1.9-1.4.5-1.4-.1.7-5.6 1-2.8 2.8-2.9 2.8-.2zm-75-.1c0 .7-10.2 5.2-14.5 6.4-5 1.4-5.5 1.4-5.5 0 0-.6.7-.8 1.6-.5 1.2.4 1.5.2 1-.9-.3-.8-.1-1.5.4-1.5.6 0 1 .6 1.1 1.2 0 .7.4.3 1-1 .5-1.3 1.3-2 1.9-1.7.5.3 1 .1 1-.4 0-.7 1.6-.9 4.3-.6 2.3.3 4.9 0 5.7-.5 1.7-1.1 2-1.2 2-.5zm62.7 5.1c-.3.3-1.2.4-1.9.1-.8-.3-.5-.6.6-.6 1.1-.1 1.7.2 1.3.5zM330 370c0 .5-.7 1-1.5 1s-1.5-.5-1.5-1c0-.6.7-1 1.5-1s1.5.4 1.5 1zm-1.3 2.6c-.3.3-1.2.4-1.9.1-.8-.3-.5-.6.6-.6 1.1-.1 1.7.2 1.3.5z"/><path d="M394.7 132.3c-1.9 2.9-2.2 4.7-.7 4.7 1.3 0 3.2-3.8 2.8-5.8-.2-1.2-.7-1-2.1 1.1zM568.8 9.1c-1 1-1.8 2.2-1.8 2.7 0 .4-.9 2.4-2 4.4-1.5 2.9-1.7 4.3-1 6.9.5 1.8.8 3.5.5 3.7-.6.7-10.2-1.8-11.9-3.1-1.3-1-1.4-1.9-.6-4.6 1.4-4.9.6-4.9-2.1-.1-2.6 4.7-5.1 5.6-10.5 4.1-2.2-.6-4.2-1.1-4.6-1.1-1 0-2.8 6.9-2.1 8.6.3.8.1 1.4-.5 1.4-1 0-2.1 5.3-2.8 13.3-.3 2.9 0 4.6.5 4.2.6-.3.5.9-.1 2.7-.6 1.8-1.3 5.2-1.5 7.5-.3 2.8-.9 4-1.7 3.7-.9-.3-1.5 1-1.9 4.3-1.5 11.5-3.7 24.2-5.1 28.8-.8 2.7-2.2 8.4-3 12.5-1.8 8.4-7.2 28.6-11.6 43-1.6 5.2-3.6 13.1-4.5 17.5-.9 4.4-2.3 10.4-3.1 13.4-.9 3.7-1.1 5.8-.4 6.7.8.8.6 1.7-.5 2.8-1.6 1.5-2.4 8-1.2 9.2.4.4 2.1 0 3.9-.9 4-2 4.6-1.5 1.9 1.4-1.3 1.4-2.1 3.6-2.1 5.6 0 3.2 1.2 4.3 2.5 2.4.7-1.3 6.5-4.1 6.5-3.2 0 .3-.7 1.7-1.6 2.9-.8 1.2-1.3 2.6-.9 3.1.3.5.1 1.2-.5 1.6-.5.3-1.2-.6-1.6-2-.4-1.8-1-2.3-1.7-1.6-.7.7-.7 1.4.1 2.3.8 1.1.6 1.7-.8 2.6-2.4 1.5-4.3-.2-6-5.3-1.6-4.8-2.8-4.4-3.4 1.2-.4 2.7-1.1 7.3-1.6 10.4-.6 3-1 7.7-1 10.5 0 2.7-.7 8-1.6 11.9-4.5 20.8-5.7 29.5-4.3 31.1.6.8.4 2.4-.5 4.5-.9 1.9-2.5 8.6-3.6 14.9l-1.9 11.5 2.1 1.6c1.9 1.5 2 2.3 1.6 9.4-.5 7.6-.6 7.8-4.4 11l-3.9 3.3 2.3 1.8c3.5 2.8 7.1 19.8 4.5 20.8-2.2.9-1.8 15.2.6 18.5 2.7 3.8 7.4 3.2 9.2-1 .9-2.2 1.6-2.8 3-2.4 1.4.5 1.9.1 1.9-1.1 0-1.3.3-1.4 1.5-.4 1.2 1 1.5.9 1.6-.6.1-1.1.1-2.3 0-2.8-.4-1.9 4.1-9.5 5.3-9 1.2.5 7.4-8 12.4-16.9 3-5.3 5.1-7.7 6.9-7.7 1 0 1.2-.9.8-3.3-.5-2.7-.2-4 1.9-6.5 1.5-1.7 4.6-6.6 7-10.9 4.1-7.3 4.5-7.8 7.7-7.8h3.4l3.7-11c3.3-9.9 3.5-11.1 2-11.6-1.6-.6-1.6-.7.1-1.4.9-.4 1.7-1.5 1.7-2.5s.4-2 .9-2.2c.6-.2 4-9.3 7.6-20.3 3.7-11 7.2-20.7 8-21.5 1.3-1.6 3-6 2.2-6-.3 0-2 .7-3.9 1.5l-3.5 1.4-1.5-3.7c-1.4-3.8-1.3-7.2.3-7.2.5 0 .9.4.9 1 0 .5 1.1 1 2.4 1 1.4 0 2.8.5 3.1 1 .3.6 1.4 1 2.3 1 1.2 0 1.3-.3.4-1.2-1.5-1.5-1.6-3.2-.2-2.3.6.3 1 .2 1-.3 0-1.7-1.3-2.1-3.1-1.1-1.4.7-1.9.6-1.9-.2 0-.7-.9-.9-2.1-.6-1.5.4-1.9.2-1.5-1 .3-.8.6-1.9.6-2.4s.6-.9 1.3-.9c2.2 0 4.7-3.4 4.9-6.6.1-1.6 1-3.8 2-5 2.3-2.6 5.3-10.5 7.8-20.9 7.7-31.6 14.4-61.1 15.2-67 .8-6.6 2.5-15.1 6.3-32.5.9-4.1 2.1-11.3 2.6-16 1.3-11.7 1.6-13.9 2.6-18.5.5-2.2.9-5.6.8-7.5v-3.5l-6.5-1.2c-8.1-1.5-17.2-3-22.7-3.8-3.5-.6-4.3-1.1-4.8-3.3-.3-1.5-.1-4.2.4-5.9.7-2.5.6-3.6-.5-4.7-1-1-1-1.6-.2-1.8.7-.3.8-.9.3-1.9-.5-.8-.8-2.2-.7-3.2.4-2.1.2-2.1-2 .4zm32.4 46.1c-1.4 1.4-3.2.1-3.2-2.2 0-1-.7-2.5-1.5-3.4-.8-.8-1.5-1.8-1.5-2.2 0-.4 1.6 1 3.6 3 2.5 2.6 3.3 4.1 2.6 4.8zm-4.6.3c.8 2 1.9 3.3 2.4 3 1.2-.7 1.6 1.9 1.1 7.3-.3 3.8-1 5.1-4.9 8.8-5.1 4.9-6.3 5.1-3.6.4 1.6-2.7 1.7-3.2.4-4-1.2-.8-1.2-1-.1-1 1.1 0 1.1-.3.2-1.4-.9-1.1-1-2-.1-3.5.6-1.2.8-2.1.5-2.1-.3 0-.1-.9.4-1.9.8-1.4.7-2-.4-2.4-1.1-.5-1.2-1.2-.2-3.6 1.5-4 2.5-3.9 4.3.4zM511 149c-.8.6-2.2 1-3 1-.8 0-.4-.6 1-1.3 2.7-1.5 4.4-1.2 2 .3zm9 72c.5 3.5-.1 7.7-1.3 9.4-1.1 1.5-1.4 1.2-2.8-2.6s-1.4-4.7-.2-7.7c1.2-2.9 1.6-3.2 2.8-2 .7.8 1.4 2.1 1.5 2.9zm-19 60c0 .5-.2 1-.4 1-.3 0-.8-.5-1.1-1-.3-.6-.1-1 .4-1 .6 0 1.1.4 1.1 1zm46 .7c-.1 1.6-3.9 5.3-5.3 5.3-1.1 0-.8-.8 1.1-3 2.6-2.9 4.2-3.8 4.2-2.3zm-39.3 3c-.4.3-.2 1.2.4 2 .7.8.8 1.3.1 1.3-.5 0-1.5-.6-2.1-1.3-1.1-1.4-.5-2.7 1.2-2.7.6 0 .7.3.4.7zm12.3 23.5c0 .7-1.2 1.9-2.7 2.5l-2.6 1.3 2.3-2.5c2.7-2.9 3-3 3-1.3zm.6 9.4c-.4.9-.9 1.5-1.1 1.2-.3-.3-.3-1.3.1-2.2.4-.9.9-1.5 1.1-1.2.3.3.3 1.3-.1 2.2zM513 319c0 .5-.5 1-1.1 1-.5 0-.7.5-.3 1.2.4.7.3.8-.4.4-.6-.4-.9-1.3-.5-2.1.6-1.7 2.3-2 2.3-.5zm-5.5 13c-.5 2.2-.3 3 .7 3s1 .2-.2.9c-2.1 1.4-3.1.3-2.4-2.7 1.2-5 3-6.1 1.9-1.2zm-.4 12.7c-1.1 2.1-2 3.5-2.1 3.2 0-1.4 3.1-8.1 3.6-7.6.3.3-.4 2.2-1.5 4.4zm-25.1 12c-.1.5-.7 1.9-1.5 3.3l-1.4 2.5-.1-3.3c0-2.2.5-3.2 1.5-3.2.8 0 1.5.3 1.5.7zM249.8 12.5c-.4 2-.2 2.3.8 1.4.7-.6 1-1.7.7-2.5-.7-2-1-1.8-1.5 1.1zM285.2 15.2c-1.3 1.6-18.7 3.1-33.3 2.8-3.9-.1-8.4.6-11 1.5-2.4.9-5.1 1.7-5.9 1.7-.8 0-3.9 4-6.9 8.9-2.9 4.9-6.1 9.5-7.1 10.2-1 .7-4.2 6.4-7.2 12.7-3.2 6.6-7.5 13.8-10.2 16.8-2.5 3-4.6 6.4-4.6 7.6 0 2.5 1.7 4.6 3.7 4.6 1.3 0 2.1-.5 5.6-3.6.7-.5 2-1.3 3-1.7.9-.3 1.7-1.1 1.7-1.7 0-.5.4-1 .9-1 1.2 0 2.1 21.9 1 24.8-1.5 4-2.3 23.6-1 27.3 1 3 1.3 25.1.9 61.4 0 4.4-.1 10.8-.1 14.2 0 3.5 0 9.6-.1 13.5-.1 4 .3 13.4.9 20.8.5 7.4.9 16.4.9 20-.2 20.3-.5 24.3-2 27.2-1.8 3.6-1.5 10.1 1 19.8 2.5 9.3 3 14.8 1.7 16.4-1 1.2-1.4 4.3-2 17.6-.1 3.1-.3 3.3-1.5 1.7-.7-.9-1.6-1.7-2-1.7-1.2 0-.6 2.2 2.5 8.6 2.4 4.9 3 7.3 2.6 10-.7 3.9.2 13.4 1.2 13.2 1.9-.2 2.1.5.7 2.9-1.3 2.5-1.9 4.3-3.3 10.3-.1.8-.5 3.6-.7 6.2-.5 5.5-.6 5.4 12.9 6.3 5 .3 10.1.8 11.5 1.1 1.4.2 4.8-.2 7.5-1.1 2.8-.8 5.9-1.5 7-1.5 1.1 0 3.6-1.5 5.6-3.4 3.9-3.7 13.4-8.6 16.7-8.6 2.7 0 3-1.5 3.4-14.7.3-8.1.7-10.6 2.2-12.2 1.7-1.9 1.4-4.7-.4-3.6-1.2.7-6-5.3-6-7.6 0-1.1.4-2.8.9-3.8.7-1.2.4-3.6-.9-7.7-1.8-5.8-1.8-8 .1-6.9 1.4.9 5.7-4.6 6.3-8 .3-1.7-.1-7.1-1-12-2.5-14.6-3.7-28.4-3.5-38.4.1-5.2-.5-14.9-1.4-21.6-1.2-8.9-1.6-17.7-1.3-33.1l.3-21 3.6-4.9c2-2.8 4.2-6.6 4.8-8.6.7-2 2.5-5.7 4.2-8.2 3-4.5 5.5-14.6 4.4-17.4-.3-.9.2-2.6 1-3.9 2.3-3.5 1-2.9-4.9 2.1-5 4.2-7.4 5.7-6.1 3.6.3-.5.1-1.2-.4-1.5-.5-.4-2.1.8-3.5 2.6l-2.6 3.3.2-2.8c.1-1.5.8-2.7 1.5-2.7s1.3-.7 1.3-1.6c0-.8.3-1.3.8-1.1 2.3 1.4 3.3-4.2 1.7-9.2-.6-2-.4-2.3.9-1.8 1.3.5 1.6-.1 1.6-4.1 0-3.2-.3-4.2-.9-3.3-.8 1.2-1.2 1.2-2.5.2-1.8-1.6-2.1-4.7-.5-5.7.6-.3 1.5-.1 1.9.6.5.9.9.9 1.4.1.4-.6.4-1.6.1-2.1-.4-.6-.6-4.5-.7-8.8 0-4.2-.8-13.6-1.9-20.7-1-7.2-1.9-13.6-1.9-14.3 0-.6-.8-1.2-1.7-1.2-1.3 0-1.4-.3-.5-1.2.7-.7 1.2-2 1.2-3s.9-3.5 2-5.5c1.1-2.1 2-4.8 2-6 0-1.7.7-2.2 3.3-2.5l3.2-.3-.3-5.4c-.3-4.7 0-5.9 2.7-9.6 1.7-2.4 3.1-4.6 3.1-5 0-1-9.1 5.6-9.7 7.1-.6 1.7-2.9 1.8-3.6.1-.2-.7-.2-5 .2-9.6l.6-8.3 4-2.2c4.7-2.6 5-3.6 3.3-9.5-1.1-3.7-1.5-4.2-2.6-2.9zM273 26.5c-1.9 2.3-7 5.8-7.6 5.2-.3-.3 1.4-1.9 3.8-3.6 4.9-3.5 5.6-3.7 3.8-1.6zm-9.6 16.6c-1.1 3.8-2.6 6.5-4.1 7.4-2.7 1.8-2.8 1.4-.9-2.8.8-1.8 2.4-5.5 3.6-8.2 2.9-6.4 3.7-4.2 1.4 3.6zm-6 14.6c-1 4.2-2.1 4.7-1.6.8.2-1.9.8-3.5 1.3-3.5s.6 1.2.3 2.7zm-2.1 9.8c-.7 2.1-1.3 1.9-1.3-.6 0-1.1.4-1.8 1-1.4.5.3.7 1.2.3 2zm-7.3 5.2c1.7 3 2 3.3 1.6 1.2-.4-1.9-.1-2.6 1-2.6.8 0 1.3.6 1 1.4-.3.7-.1 1.3.4 1.3.6 0 1.1-1 1.1-2.3.2-2.2.2-2.2.6 0 .2 1.2-.5 4.1-1.6 6.4-1.2 2.4-2.1 5.2-2.1 6.4 0 1.1-.5 2.6-1.1 3.2-.7.7-.8 1.9-.4 3 1.2 2.6 1.2 5.3.3 8.8-.5 1.6-.9 4.7-1 6.8 0 4.2-.7 5-2.8 3.6-.8-.5-1-.9-.5-.9.6 0 1.1-2.3 1.2-5.1 0-2.9.6-5.4 1.1-5.8.7-.4.6-2.7-.2-6.8-1.3-6.2-2.2-22.3-1.2-22.3.3 0 1.5 1.7 2.6 3.7zm28 10.2c0 .6-.4 1.3-1 1.6-.5.3-1-.1-1-.9 0-.9.5-1.6 1-1.6.6 0 1 .4 1 .9zm-33.1 29c.7.5 1 1.5.7 2.2-.4.8 0 .5.8-.5 1.2-1.4 1.6-1.6 1.6-.5-.1 1.8-2.4 4.9-3.7 4.9-.6 0-3.4 1.6-6.2 3.5-2.8 1.9-5.5 3.5-6 3.5-.4 0-1.4.7-2.1 1.5-.7.8-1.6 1.2-2.1.9-1.5-.9-1-2.2 1.3-3 3.1-1 4.6-2.6 4-4.6-.3-1.2.1-1.8 1.2-1.8 1.1 0 1.5.5 1.1 1.2-.4.7 0 .6.7-.2.8-.8 2-2.1 2.8-2.9 1.3-1.2 1.3-1.3-.3-.8-1.1.4-1.6.3-1.2-.3.3-.6 1.3-1 2.1-1s1.4-.7 1.4-1.5c0-1.7 1.8-1.9 3.9-.6zm-7.2 34.9c-1.4 1.7-2.2 0-1.2-2.6.5-1.4.7-1.4 1.5-.2.5.9.4 2-.3 2.8zm-1.3 3.4c-1.6 2.9-3.8 4.8-5.4 4.8-1 0-2.3.7-3 1.5-1.8 2.1-2.7 1.9-3.2-1-.6-3.1.1-4 1.7-1.9 1 1.5 1.4 1.5 4.4 0 1.7-1 3.5-2.4 3.8-3.2.3-.7.9-1.4 1.5-1.4.5 0 .6.6.2 1.2zM288 155c0 1.1-3.9 3.4-4.6 2.7-.6-.6 2.5-3.7 3.7-3.7.5 0 .9.4.9 1zm-43.4 4.8c-.9 1.7-1.6 5.8-1.8 9.2-.1 3.4-.5 6.3-.8 6.5-.7.5-.8 0-1.2-6.9-.2-2.8.2-5.5.9-6.5.7-.9 1.3-2.3 1.3-3.2 0-1.8 2.3-4.4 2.8-3 .2.5-.4 2.3-1.2 3.9zm-13.3-1.6c.7 1.9-.4 22-1.4 24.5-.7 1.9-1.3 2.1-5.1 1.6-2.4-.3-4.5-.7-4.7-.9-.1-.1 1.1-1.6 2.8-3.3 1.7-1.6 2.6-3.3 2.1-3.6-.6-.3-1-1.5-1-2.6 0-1-.6-1.9-1.4-1.9-1.8 0-2.7-2.3-1.5-4.1.7-1.1.9-1 1 .6.1 1.7.2 1.7.6.2.2-.9 1.1-1.7 1.9-1.7.8 0 1.4-.8 1.3-1.8 0-1-.3-1.2-.6-.5-.7 1.8-3 1.6-3.7-.2-.3-.9.3-1.9 1.4-2.5 1.4-.7 2-.7 2 0 0 .5.5 1 1 1 .6 0 1-.8 1-1.8 0-3.2 3.4-5.5 4.3-3zm50.1 4.2c-.7 2.6-1.2 3.3-2.3 2.7-1.1-.7-1.1-1.5 0-4.5 1.7-4.6 3.5-3.2 2.3 1.8zm-6.4-1.3c0 .5-.4.9-1 .9-.5 0-1-.7-1-1.6 0-.8.5-1.2 1-.9.6.3 1 1 1 1.6zm-4 4.9c0 .5-.4 1-1 1-.5 0-1-.5-1-1 0-.6.5-1 1-1 .6 0 1 .4 1 1zm7.5-.1c.6 1-6.5 6.4-7.4 5.6-.5-.6 4.9-6.5 6-6.5.4 0 1 .4 1.4.9zm-10.7 10c-3 3.9-4.6 4-1.8.1 1.2-1.7 2.6-3 3.1-3 .6 0 0 1.3-1.3 2.9zm-45.5.7c-.6 1.7-2.3.9-2.3-1.1 0-.8.6-1.2 1.4-.9.8.3 1.2 1.2.9 2zm6.3 11.9c-.4 1.5-.2 2.5.4 2.5.6 0 .8.4.5 1-.8 1.4-2.6 1.3-2.2-.1.1-.6-.4-1.4-1-1.6-.7-.3-1.3.2-1.3 1 0 .7-.9 2.2-2 3.2-3.4 3.1-2.5-.8 1.2-4.9 3.7-4.2 5.3-4.6 4.4-1.1zm-1.6 12.1c0 .8-.5 1.2-1 .9-.6-.4-.8-1.1-.5-1.6.9-1.4 1.5-1.1 1.5.7zm-6.8 5.6c-.6.6-.7 0-.4-1.9.5-2.1.7-2.3 1-.9.2 1 0 2.2-.6 2.8zm46.5 135.7c1.7 2.2 1.6 3.5-.8 7.5-2.4 4.1-2.5 4.2-3.3 2-.3-.8-.2-1.2.4-.9.5.3 1.6-.8 2.5-2.5 1.8-3.4 1-5.4-2.6-6.5-1-.4-1.9-1.1-1.9-1.6 0-1.5 4.2.1 5.7 2zm-47.8 0c1.1 1.1 1.7 2.2 1.4 2.5-1.1 1.1-2.3.6-2.3-.9 0-.8-.4-1.5-1-1.5-.5 0-1-.5-1-1 0-1.5.8-1.2 2.9.9zM249 359c0 .5-.2 1-.4 1-.3 0-.8-.5-1.1-1-.3-.6-.1-1 .4-1 .6 0 1.1.4 1.1 1zm6.4 4.6c.3.8.2 1.2-.4.9-.6-.3-1-1-1-1.6 0-1.4.7-1.1 1.4.7zm6.6 5.1c0 2.2-1.2 4.3-2.5 4.3-.7 0-2.6.7-4.1 1.5-4 2.1-5.4 1.9-5.1-.8.1-1.3-.3-2.1-1-1.9-.7.1-1.3-.2-1.3-.8 0-.6-.7-1-1.6-1-.8 0-1.2-.5-.9-1 .3-.6.1-1-.4-1-.6 0-1.1-.5-1.1-1 0-.6.9-1 2-1s2 .3 2 .7c0 .5 2 .9 4.4 1.1 3.2.2 4.5-.1 5-1.3.5-1.3.9-1.3 2.6-.3 1.1.7 2 1.8 2 2.5zm-18 6.2c0 .5-.7 1.1-1.4 1.4-1 .4-1.3.1-.9-.9.6-1.5 2.3-1.9 2.3-.5zm-6 1.1c0 .5-.4 1-1 1-.5 0-1-.5-1-1 0-.6.5-1 1-1 .6 0 1 .4 1 1zm-16.1 3c-.6.5-1.8.6-2.6.3-1.9-.8-1.6-1.1 1.3-1.1 1.7 0 2.2.3 1.3.8z"/><path d="M226.1 173.6c0 1.1.3 1.4.6.6.3-.7.2-1.6-.1-1.9-.3-.4-.6.2-.5 1.3zM451.3 308.6c-.6 1.3-.7 2.4-.3 2.4.9 0 2.5-3.9 1.8-4.5-.2-.2-.8.7-1.5 2.1z"/></g></svg>